<mxfile host="app.diagrams.net" modified="2024-07-08T05:08:55.832Z" agent="Mozilla/5.0 (Windows NT 10.0; Win64; x64) AppleWebKit/537.36 (KHTML, like Gecko) Chrome/126.0.0.0 Safari/537.36" etag="jtzQdntZVeumKsvNV4MW" version="24.6.4" type="github">
  <diagram id="C5RBs43oDa-KdzZeNtuy" name="Page-1">
    <mxGraphModel dx="1207" dy="719" grid="1" gridSize="10" guides="1" tooltips="1" connect="1" arrows="1" fold="1" page="1" pageScale="1" pageWidth="827" pageHeight="1169" math="0" shadow="0">
      <root>
        <mxCell id="WIyWlLk6GJQsqaUBKTNV-0" />
        <mxCell id="WIyWlLk6GJQsqaUBKTNV-1" parent="WIyWlLk6GJQsqaUBKTNV-0" />
        <mxCell id="WIyWlLk6GJQsqaUBKTNV-2" value="" style="rounded=0;html=1;jettySize=auto;orthogonalLoop=1;fontSize=11;endArrow=block;endFill=0;endSize=8;strokeWidth=1;shadow=0;labelBackgroundColor=none;edgeStyle=orthogonalEdgeStyle;" parent="WIyWlLk6GJQsqaUBKTNV-1" source="WIyWlLk6GJQsqaUBKTNV-3" target="WIyWlLk6GJQsqaUBKTNV-6" edge="1">
          <mxGeometry relative="1" as="geometry" />
        </mxCell>
        <mxCell id="WIyWlLk6GJQsqaUBKTNV-3" value="Data Scrubbing Service cycle start&lt;br&gt;&lt;br&gt;Running in a interval of time&amp;nbsp;" style="rounded=1;whiteSpace=wrap;html=1;fontSize=12;glass=0;strokeWidth=1;shadow=0;" parent="WIyWlLk6GJQsqaUBKTNV-1" vertex="1">
          <mxGeometry x="120" y="70" width="200" height="50" as="geometry" />
        </mxCell>
        <mxCell id="IPmPv5QWfPckUx-3BL-2-4" value="" style="edgeStyle=orthogonalEdgeStyle;rounded=0;orthogonalLoop=1;jettySize=auto;html=1;" edge="1" parent="WIyWlLk6GJQsqaUBKTNV-1" source="WIyWlLk6GJQsqaUBKTNV-6" target="IPmPv5QWfPckUx-3BL-2-3">
          <mxGeometry relative="1" as="geometry" />
        </mxCell>
        <mxCell id="IPmPv5QWfPckUx-3BL-2-13" value="" style="edgeStyle=orthogonalEdgeStyle;rounded=0;orthogonalLoop=1;jettySize=auto;html=1;" edge="1" parent="WIyWlLk6GJQsqaUBKTNV-1" source="WIyWlLk6GJQsqaUBKTNV-6" target="IPmPv5QWfPckUx-3BL-2-11">
          <mxGeometry relative="1" as="geometry" />
        </mxCell>
        <mxCell id="WIyWlLk6GJQsqaUBKTNV-6" value="&lt;b&gt;Error Detection&lt;/b&gt;&lt;br&gt;&lt;br&gt;based on BIT Flip Count and BIT Flip Report by using HW ECC&lt;div&gt;&lt;br&gt;&lt;/div&gt;" style="rhombus;whiteSpace=wrap;html=1;shadow=0;fontFamily=Helvetica;fontSize=12;align=center;strokeWidth=1;spacing=6;spacingTop=-4;" parent="WIyWlLk6GJQsqaUBKTNV-1" vertex="1">
          <mxGeometry x="102.5" y="170" width="235" height="160" as="geometry" />
        </mxCell>
        <mxCell id="WIyWlLk6GJQsqaUBKTNV-11" value="Data Scrubbing Service cycle end" style="rounded=1;whiteSpace=wrap;html=1;fontSize=12;glass=0;strokeWidth=1;shadow=0;" parent="WIyWlLk6GJQsqaUBKTNV-1" vertex="1">
          <mxGeometry x="115" y="1060" width="210" height="40" as="geometry" />
        </mxCell>
        <mxCell id="IPmPv5QWfPckUx-3BL-2-6" value="" style="edgeStyle=orthogonalEdgeStyle;rounded=0;orthogonalLoop=1;jettySize=auto;html=1;" edge="1" parent="WIyWlLk6GJQsqaUBKTNV-1" source="IPmPv5QWfPckUx-3BL-2-3" target="IPmPv5QWfPckUx-3BL-2-5">
          <mxGeometry relative="1" as="geometry" />
        </mxCell>
        <mxCell id="IPmPv5QWfPckUx-3BL-2-3" value="&lt;br&gt;Generate Bit Flip Count Table(BFCT) and add the faulty blocks" style="rounded=0;whiteSpace=wrap;html=1;" vertex="1" parent="WIyWlLk6GJQsqaUBKTNV-1">
          <mxGeometry x="100" y="390" width="240" height="110" as="geometry" />
        </mxCell>
        <mxCell id="IPmPv5QWfPckUx-3BL-2-8" value="" style="edgeStyle=orthogonalEdgeStyle;rounded=0;orthogonalLoop=1;jettySize=auto;html=1;" edge="1" parent="WIyWlLk6GJQsqaUBKTNV-1" source="IPmPv5QWfPckUx-3BL-2-5" target="IPmPv5QWfPckUx-3BL-2-7">
          <mxGeometry relative="1" as="geometry" />
        </mxCell>
        <mxCell id="IPmPv5QWfPckUx-3BL-2-5" value="&lt;br&gt;&lt;span style=&quot;font-size:10.5pt;line-height:&lt;br/&gt;107%;font-family:&amp;quot;Segoe UI&amp;quot;,&amp;quot;sans-serif&amp;quot;;mso-fareast-font-family:&amp;quot;Malgun Gothic&amp;quot;;&lt;br/&gt;mso-fareast-theme-font:minor-fareast;color:#172B4D;background:white;mso-ansi-language:&lt;br/&gt;EN-US;mso-fareast-language:KO;mso-bidi-language:AR-SA;mso-bidi-font-weight:&lt;br/&gt;bold&quot; lang=&quot;EN-US&quot;&gt;By using ltffs, move the content to some other free block if the faulty blocks are contains some critical data&amp;nbsp;&lt;/span&gt;" style="rounded=0;whiteSpace=wrap;html=1;" vertex="1" parent="WIyWlLk6GJQsqaUBKTNV-1">
          <mxGeometry x="100" y="585" width="240" height="100" as="geometry" />
        </mxCell>
        <mxCell id="IPmPv5QWfPckUx-3BL-2-10" value="" style="edgeStyle=orthogonalEdgeStyle;rounded=0;orthogonalLoop=1;jettySize=auto;html=1;" edge="1" parent="WIyWlLk6GJQsqaUBKTNV-1" source="IPmPv5QWfPckUx-3BL-2-7" target="IPmPv5QWfPckUx-3BL-2-9">
          <mxGeometry relative="1" as="geometry" />
        </mxCell>
        <mxCell id="IPmPv5QWfPckUx-3BL-2-7" value="&lt;b&gt;Block Remapping&lt;/b&gt;&lt;div&gt;&lt;br&gt;&lt;/div&gt;&lt;div&gt;Update the new block details and file details in ltffs file system&lt;/div&gt;" style="rounded=0;whiteSpace=wrap;html=1;" vertex="1" parent="WIyWlLk6GJQsqaUBKTNV-1">
          <mxGeometry x="95" y="750" width="250" height="100" as="geometry" />
        </mxCell>
        <mxCell id="IPmPv5QWfPckUx-3BL-2-17" value="" style="edgeStyle=orthogonalEdgeStyle;rounded=0;orthogonalLoop=1;jettySize=auto;html=1;" edge="1" parent="WIyWlLk6GJQsqaUBKTNV-1" source="IPmPv5QWfPckUx-3BL-2-9" target="WIyWlLk6GJQsqaUBKTNV-11">
          <mxGeometry relative="1" as="geometry" />
        </mxCell>
        <mxCell id="IPmPv5QWfPckUx-3BL-2-9" value="&lt;span style=&quot;font-size:10.5pt;line-height:&lt;br/&gt;107%;font-family:&amp;quot;Segoe UI&amp;quot;,&amp;quot;sans-serif&amp;quot;;mso-fareast-font-family:&amp;quot;Malgun Gothic&amp;quot;;&lt;br/&gt;mso-fareast-theme-font:minor-fareast;color:#172B4D;background:white;mso-ansi-language:&lt;br/&gt;EN-US;mso-fareast-language:KO;mso-bidi-language:AR-SA;mso-bidi-font-weight:&lt;br/&gt;bold&quot; lang=&quot;EN-US&quot;&gt;Handover BFCT table to ltffs file system, so that ltffs&lt;br/&gt;will not reallocate this blocks.&lt;/span&gt;" style="rounded=0;whiteSpace=wrap;html=1;" vertex="1" parent="WIyWlLk6GJQsqaUBKTNV-1">
          <mxGeometry x="92.5" y="910" width="255" height="100" as="geometry" />
        </mxCell>
        <mxCell id="IPmPv5QWfPckUx-3BL-2-11" value="Reset BFCT table&amp;nbsp;" style="rounded=0;whiteSpace=wrap;html=1;" vertex="1" parent="WIyWlLk6GJQsqaUBKTNV-1">
          <mxGeometry x="414" y="220" width="120" height="60" as="geometry" />
        </mxCell>
        <mxCell id="IPmPv5QWfPckUx-3BL-2-14" value="" style="endArrow=classic;html=1;rounded=0;exitX=0.5;exitY=0;exitDx=0;exitDy=0;entryX=1;entryY=0.5;entryDx=0;entryDy=0;" edge="1" parent="WIyWlLk6GJQsqaUBKTNV-1" source="IPmPv5QWfPckUx-3BL-2-11" target="WIyWlLk6GJQsqaUBKTNV-3">
          <mxGeometry width="50" height="50" relative="1" as="geometry">
            <mxPoint x="480" y="390" as="sourcePoint" />
            <mxPoint x="530" y="340" as="targetPoint" />
            <Array as="points">
              <mxPoint x="474" y="95" />
            </Array>
          </mxGeometry>
        </mxCell>
        <mxCell id="IPmPv5QWfPckUx-3BL-2-15" value="YES" style="text;html=1;align=center;verticalAlign=middle;resizable=0;points=[];autosize=1;strokeColor=none;fillColor=none;" vertex="1" parent="WIyWlLk6GJQsqaUBKTNV-1">
          <mxGeometry x="220" y="330" width="50" height="30" as="geometry" />
        </mxCell>
        <mxCell id="IPmPv5QWfPckUx-3BL-2-16" value="NO" style="text;html=1;align=center;verticalAlign=middle;resizable=0;points=[];autosize=1;strokeColor=none;fillColor=none;" vertex="1" parent="WIyWlLk6GJQsqaUBKTNV-1">
          <mxGeometry x="340" y="220" width="40" height="30" as="geometry" />
        </mxCell>
        <mxCell id="IPmPv5QWfPckUx-3BL-2-18" value="&lt;b&gt;Error Correction&lt;/b&gt;&lt;br&gt;&lt;br&gt;By using ECC if error correction possible Data Scrubbing will do it" style="rounded=0;whiteSpace=wrap;html=1;" vertex="1" parent="WIyWlLk6GJQsqaUBKTNV-1">
          <mxGeometry x="440" y="500" width="230" height="100" as="geometry" />
        </mxCell>
        <mxCell id="IPmPv5QWfPckUx-3BL-2-19" value="" style="endArrow=none;dashed=1;html=1;dashPattern=1 3;strokeWidth=2;rounded=0;exitX=1;exitY=0.5;exitDx=0;exitDy=0;entryX=0.5;entryY=0;entryDx=0;entryDy=0;" edge="1" parent="WIyWlLk6GJQsqaUBKTNV-1" source="IPmPv5QWfPckUx-3BL-2-3" target="IPmPv5QWfPckUx-3BL-2-18">
          <mxGeometry width="50" height="50" relative="1" as="geometry">
            <mxPoint x="400" y="600" as="sourcePoint" />
            <mxPoint x="450" y="550" as="targetPoint" />
            <Array as="points">
              <mxPoint x="555" y="445" />
            </Array>
          </mxGeometry>
        </mxCell>
        <mxCell id="IPmPv5QWfPckUx-3BL-2-20" value="" style="endArrow=none;dashed=1;html=1;dashPattern=1 3;strokeWidth=2;rounded=0;exitX=1;exitY=0.5;exitDx=0;exitDy=0;entryX=0.5;entryY=1;entryDx=0;entryDy=0;" edge="1" parent="WIyWlLk6GJQsqaUBKTNV-1" source="IPmPv5QWfPckUx-3BL-2-5" target="IPmPv5QWfPckUx-3BL-2-18">
          <mxGeometry width="50" height="50" relative="1" as="geometry">
            <mxPoint x="400" y="600" as="sourcePoint" />
            <mxPoint x="450" y="550" as="targetPoint" />
            <Array as="points">
              <mxPoint x="555" y="635" />
            </Array>
          </mxGeometry>
        </mxCell>
      </root>
    </mxGraphModel>
  </diagram>
</mxfile>
